<?xml version="1.0" encoding="utf-8"?>
<!-- Generator: Adobe Illustrator 15.0.2, SVG Export Plug-In . SVG Version: 6.00 Build 0)  -->
<!DOCTYPE svg PUBLIC "-//W3C//DTD SVG 1.1//EN" "http://www.w3.org/Graphics/SVG/1.1/DTD/svg11.dtd">
<svg version="1.1" id="Layer_1" xmlns="http://www.w3.org/2000/svg" xmlns:xlink="http://www.w3.org/1999/xlink" x="0px" y="0px"
	 width="20px" height="20px" viewBox="7.5 7.5 20 20" enable-background="new 7.5 7.5 20 20" xml:space="preserve">
<path fill="#414042" d="M24.604,8H10.396C9.072,8,8,9.063,8,10.375v14.25C8,25.937,9.072,27,10.396,27h14.207
	C25.928,27,27,25.937,27,24.625v-14.25C27,9.063,25.928,8,24.604,8 M21.409,17.5c0,2.137-1.754,3.874-3.909,3.874
	c-2.156,0-3.91-1.737-3.91-3.874c0-0.643,0.161-1.247,0.441-1.781c0.653-1.242,1.961-2.093,3.468-2.093
	c1.507,0,2.815,0.851,3.469,2.093C21.247,16.253,21.409,16.857,21.409,17.5 M24.86,23.906c0,0.537-0.44,0.973-0.982,0.973H11.207
	c-0.542,0-0.982-0.437-0.982-0.973v-8.187h1.621c-0.181,0.562-0.28,1.16-0.28,1.781c0,3.243,2.662,5.881,5.935,5.881
	c3.271,0,5.934-2.638,5.934-5.881c0-0.621-0.1-1.219-0.28-1.781h1.707V23.906z M24.86,12.653c0,0.537-0.44,0.973-0.982,0.973H22.39
	c-0.542,0-0.982-0.436-0.982-0.973v-1.609c0-0.427,0.277-0.786,0.666-0.917h1.805c0.541,0,0.982,0.436,0.982,0.974V12.653z"/>
</svg>
