<?xml version="1.0" encoding="utf-8"?>
<!-- Generator: Adobe Illustrator 15.0.2, SVG Export Plug-In . SVG Version: 6.00 Build 0)  -->
<!DOCTYPE svg PUBLIC "-//W3C//DTD SVG 1.1//EN" "http://www.w3.org/Graphics/SVG/1.1/DTD/svg11.dtd">
<svg version="1.1" id="Layer_1" xmlns="http://www.w3.org/2000/svg" xmlns:xlink="http://www.w3.org/1999/xlink" x="0px" y="0px"
	 width="200px" height="50px" viewBox="0 0 200 50" enable-background="new 0 0 200 50" xml:space="preserve">
<g>
	<path fill="#414042" d="M29.759,25.859h12.862v4.434h-7.47v3.342h6.595v4.568h-6.595v8.181h-5.392V25.859z"/>
	<path fill="#414042" d="M54.334,25.859c5.663,0,10.261,4.623,10.261,10.291c0,5.664-4.596,10.232-10.261,10.232
		c-5.667,0-10.236-4.568-10.236-10.232C44.096,30.482,48.667,25.859,54.334,25.859z M54.334,31.224
		c-2.684,0-4.874,2.189-4.874,4.897c0,2.68,2.189,4.896,4.874,4.896c2.708,0,4.897-2.217,4.897-4.896
		C59.231,33.413,57.042,31.224,54.334,31.224z"/>
	<path fill="#414042" d="M76.745,25.859c5.665,0,10.261,4.623,10.261,10.291c0,5.664-4.596,10.232-10.261,10.232
		c-5.667,0-10.236-4.568-10.236-10.232C66.509,30.482,71.079,25.859,76.745,25.859z M76.745,31.224
		c-2.684,0-4.872,2.189-4.872,4.897c0,2.68,2.187,4.896,4.872,4.896c2.708,0,4.897-2.217,4.897-4.896
		C81.642,33.413,79.455,31.224,76.745,31.224z"/>
	<path fill="#414042" d="M89.752,25.859h7.608c5.666,0,10.263,4.597,10.263,10.263c0,5.667-4.6,10.266-10.263,10.266h-7.608V25.859z
		 M95.114,41.074h2.272c2.682,0,4.874-2.188,4.874-4.873c0-2.655-2.191-4.844-4.874-4.844h-2.272V41.074z"/>
	<path fill="#414042" d="M117.527,46.383V25.859h9.06c3.285,0,6.074,2.818,6.074,6.103c0,1.397-0.521,2.687-1.312,3.696
		c1.396,1.125,2.326,2.846,2.326,4.707c0,3.258-2.764,6.021-6.021,6.021h-10.127V46.383z M125.523,33.878
		c0.982,0,1.777-0.791,1.777-1.778c0-0.982-0.795-1.779-1.777-1.779h-2.604v3.561h2.604V33.878L125.523,33.878z M126.533,41.949
		c0.984,0,1.777-0.793,1.777-1.776c0-0.987-0.849-1.781-1.777-1.781h-3.613v3.562h3.613V41.949z"/>
	<path fill="#414042" d="M136.82,25.859h5.389v15.106h7.391v5.421H136.82V25.859L136.82,25.859z"/>
	<path fill="#414042" d="M161.757,25.859c5.665,0,10.263,4.623,10.263,10.291c0,5.664-4.598,10.232-10.263,10.232
		c-5.661,0-10.233-4.568-10.233-10.232C151.523,30.482,156.096,25.859,161.757,25.859z M161.757,31.224
		c-2.682,0-4.87,2.189-4.87,4.897c0,2.68,2.188,4.896,4.87,4.896c2.711,0,4.898-2.217,4.898-4.896
		C166.654,33.413,164.468,31.224,161.757,31.224z"/>
	<path fill="#414042" d="M195.029,35.355v0.767c0,5.667-4.596,10.266-10.262,10.266s-10.233-4.599-10.233-10.266
		c0-5.666,4.567-10.263,10.233-10.263c2.819,0,5.362,1.148,7.227,2.983l-3.807,3.774c-0.877-0.817-2.024-1.365-3.42-1.365
		c-2.572,0-4.845,2.054-4.845,4.873c0,2.82,2.326,4.871,4.845,4.871c1.615,0,3.119-0.793,3.971-2.024h-3.971v-3.612h10.262V35.355
		L195.029,35.355z"/>
</g>
<g>
	<path fill="#BF1E56" d="M4.716,25.856l-1.208-7.953c-0.021-0.138-0.038-0.273-0.047-0.399c-0.055-0.725,0.153-1.157,0.633-1.293
		c0.087-0.023,0.175-0.041,0.265-0.052c0.391-0.017,0.678,0.279,0.852,0.878c0.025,0.086,0.06,0.237,0.108,0.457
		c0.034,0.145,0.062,0.256,0.082,0.334c0.01-0.032,0.02-0.068,0.033-0.109c0.289-1.212,0.974-1.975,2.061-2.287
		c0.387-0.115,0.783-0.099,1.174,0.037c0.586,0.219,0.966,0.616,1.136,1.208c0.026,0.094,0.09,0.317,0.183,0.681
		c0.226,0.816,0.406,1.46,0.543,1.943c0.474,1.627,0.796,2.565,0.977,2.828c0.038,0.056,0.084,0.117,0.128,0.184
		c0.396,0.543,0.801,0.756,1.203,0.642c0.075-0.029,0.149-0.059,0.23-0.098c0.226-0.117,0.51-0.402,0.857-0.866
		c0.345-0.448,0.65-0.709,0.911-0.78c0.105-0.037,0.21-0.037,0.325-0.006c0.287,0.071,0.478,0.271,0.568,0.595
		c0.066,0.407-0.14,0.931-0.625,1.576c-0.59,0.71-1.252,1.164-1.992,1.379c-0.592,0.169-1.143,0.153-1.648-0.055
		c-1.049-0.437-1.907-1.809-2.576-4.117c-0.048-0.168-0.124-0.442-0.222-0.816c-0.096-0.394-0.181-0.715-0.26-0.981
		c-0.243-0.847-0.463-1.256-0.662-1.226c-0.034,0.01-0.072,0.029-0.114,0.062c-0.403,0.302-0.723,1.37-0.956,3.212
		c-0.198,1.625-0.247,2.936-0.149,3.943l0.076,0.345c0.062,0.29,0.055,0.566-0.012,0.842c-0.125,0.442-0.352,0.713-0.697,0.814
		c-0.094,0.027-0.193,0.035-0.3,0.023C5.17,26.736,4.875,26.42,4.716,25.856z"/>
	<path fill="#BF1E56" d="M15.012,13.369c0.276-0.079,0.549-0.127,0.809-0.147c1.294-0.091,2.323,0.647,3.075,2.203
		c0.125-0.128,0.328-0.367,0.608-0.704c0.383-0.462,0.698-0.733,0.941-0.8c0.121-0.037,0.245-0.034,0.377,0.006
		c0.292,0.084,0.476,0.265,0.554,0.542c0.069,0.269-0.015,0.615-0.262,1.038c-0.361,0.585-0.878,1.145-1.558,1.678
		c0.354,1.242,0.469,2.342,0.354,3.306c-0.192,1.569-0.968,2.548-2.325,2.938c-0.486,0.143-1.012,0.127-1.589-0.041
		c-1.333-0.419-2.274-1.583-2.833-3.506c-0.331-1.156-0.443-2.267-0.331-3.333C13.012,14.869,13.736,13.808,15.012,13.369z
		 M17.983,17.974c-0.314,0.088-0.614,0.135-0.909,0.156c-1.114,0.087-1.946-0.273-2.507-1.075c-0.011,0.723,0.093,1.478,0.318,2.265
		c0.11,0.378,0.253,0.734,0.425,1.068c0.535,1.021,1.174,1.428,1.922,1.205c0.246-0.065,0.448-0.207,0.606-0.415
		C18.291,20.569,18.335,19.5,17.983,17.974z M17.308,16.417l0.165-0.055c-0.433-1.054-0.875-1.514-1.331-1.392
		c-0.043,0.013-0.075,0.028-0.111,0.045c-0.161,0.118-0.211,0.275-0.15,0.471c0.048,0.179,0.128,0.337,0.231,0.489
		C16.426,16.409,16.831,16.556,17.308,16.417z"/>
	<path fill="#BF1E56" d="M18.36,8.937c0.006-0.003,0.048-0.015,0.118-0.032c0.452-0.108,0.852-0.218,1.209-0.318l-0.53-3.827
		c-0.039-0.253-0.057-0.477-0.054-0.654c0-0.566,0.222-0.918,0.681-1.043c0.089-0.03,0.183-0.049,0.279-0.06
		c0.407-0.026,0.692,0.265,0.87,0.866c0.055,0.196,0.254,1.588,0.599,4.178l1.25-0.364c0.215-0.063,0.417-0.069,0.598-0.026
		c0.325,0.087,0.538,0.298,0.63,0.619c0.042,0.147,0.045,0.289,0.012,0.439c-0.095,0.355-0.349,0.593-0.762,0.713l-1.481,0.43
		c0.76,4.942,1.225,7.704,1.395,8.278c0.105,0.368,0.281,0.688,0.523,0.96c0.358,0.411,0.724,0.563,1.089,0.457
		c0.087-0.025,0.176-0.06,0.262-0.112c0.197-0.12,0.451-0.389,0.762-0.816c0.295-0.419,0.574-0.666,0.839-0.748
		c0.114-0.033,0.227-0.039,0.341-0.018c0.328,0.064,0.535,0.233,0.62,0.529c0.095,0.423-0.088,0.938-0.544,1.555
		c-0.567,0.719-1.252,1.196-2.05,1.428c-0.789,0.216-1.526,0.081-2.214-0.424c-0.707-0.548-1.212-1.348-1.517-2.391
		c-0.066-0.234-0.515-2.955-1.348-8.165l-1.068,0.307c-0.049,0.016-0.095,0.027-0.142,0.042c-0.56,0.114-0.917-0.092-1.071-0.624
		c-0.043-0.144-0.059-0.288-0.046-0.419C17.658,9.319,17.908,9.066,18.36,8.937z"/>
	<path fill="#BF1E56" d="M31.312,14.329c-0.08-0.268-0.146-0.56-0.204-0.867c-0.225-1.416-0.144-2.744,0.238-4.002
		c0.468-1.532,1.296-2.466,2.479-2.809c0.507-0.146,0.978-0.177,1.417-0.084c0.106-0.238,0.292-0.401,0.57-0.489
		c0.159-0.052,0.262-0.063,0.311-0.053c0.374,0.013,0.64,0.304,0.803,0.864c0.066,0.228,0.173,0.733,0.314,1.52
		c0.407,2.327,0.691,3.763,0.85,4.316c0.104,0.361,0.277,0.683,0.518,0.954c0.361,0.411,0.721,0.566,1.085,0.46
		c0.072-0.021,0.144-0.054,0.221-0.09c0.225-0.117,0.512-0.393,0.867-0.839c0.348-0.447,0.645-0.708,0.909-0.78
		c0.103-0.035,0.219-0.026,0.351,0.012c0.277,0.095,0.456,0.272,0.53,0.535c0.096,0.418-0.092,0.939-0.57,1.556
		c-0.574,0.717-1.268,1.193-2.074,1.43c-1.003,0.285-1.888-0.012-2.651-0.871c-0.07,0.167-0.158,0.34-0.264,0.514
		c-0.569,0.963-1.262,1.569-2.073,1.802c-0.508,0.145-0.988,0.139-1.439-0.014C32.527,17.034,31.798,16.016,31.312,14.329z
		 M35.417,8.901l-0.153-0.83C35.067,8.029,34.87,8.04,34.68,8.098C34.539,8.14,34.394,8.2,34.255,8.285
		c-0.68,0.421-1.105,1.283-1.274,2.586c-0.153,1.173-0.075,2.282,0.227,3.326c0.01,0.04,0.024,0.078,0.033,0.119
		c0.308,0.959,0.69,1.376,1.16,1.238c0.246-0.075,0.51-0.301,0.789-0.666c0.289-0.368,0.485-0.689,0.584-0.967
		c0.058-0.184,0.068-0.666,0.035-1.442C35.729,11.026,35.598,9.833,35.417,8.901z"/>
</g>
<path fill="#BF1E56" d="M22.439,25.826c1.033,1.836,2.06,3.669,2.853,5.627c0.232,0.572,1.534,0.359,1.537-0.273
	c0.014-2.871,0.435-5.766,2.211-8.113c0.581-0.772-0.873-0.947-1.274-0.415c-1.913,2.537-2.467,5.537-2.485,8.662
	c0.514-0.092,1.024-0.181,1.539-0.271c-0.824-2.039-1.899-3.959-2.977-5.874C23.522,24.597,22.058,25.149,22.439,25.826
	L22.439,25.826z"/>
</svg>
