<?xml version="1.0" encoding="utf-8"?>
<!-- Generator: Adobe Illustrator 15.0.2, SVG Export Plug-In . SVG Version: 6.00 Build 0)  -->
<!DOCTYPE svg PUBLIC "-//W3C//DTD SVG 1.1//EN" "http://www.w3.org/Graphics/SVG/1.1/DTD/svg11.dtd">
<svg version="1.1" id="Layer_1" xmlns="http://www.w3.org/2000/svg" xmlns:xlink="http://www.w3.org/1999/xlink" x="0px" y="0px"
	 width="98.125px" height="23.25px" viewBox="0 0 98.125 23.25" enable-background="new 0 0 98.125 23.25" xml:space="preserve">
<g>
	<path fill="#414042" d="M12.338,10.216h6.539v2.254h-3.798v1.699h3.353v2.322h-3.353v4.16h-2.741V10.216z"/>
	<path fill="#414042" d="M24.832,10.216c2.879,0,5.217,2.351,5.217,5.232c0,2.88-2.337,5.203-5.217,5.203
		c-2.881,0-5.204-2.323-5.204-5.203C19.627,12.566,21.951,10.216,24.832,10.216z M24.832,12.943c-1.364,0-2.478,1.113-2.478,2.49
		c0,1.363,1.113,2.49,2.478,2.49c1.377,0,2.49-1.127,2.49-2.49C27.322,14.057,26.209,12.943,24.832,12.943z"/>
	<path fill="#414042" d="M36.226,10.216c2.88,0,5.217,2.351,5.217,5.232c0,2.88-2.337,5.203-5.217,5.203
		c-2.881,0-5.204-2.323-5.204-5.203C31.022,12.566,33.345,10.216,36.226,10.216z M36.226,12.943c-1.364,0-2.477,1.113-2.477,2.49
		c0,1.363,1.112,2.49,2.477,2.49c1.377,0,2.49-1.127,2.49-2.49C38.716,14.057,37.604,12.943,36.226,12.943z"/>
	<path fill="#414042" d="M42.839,10.216h3.868c2.88,0,5.218,2.337,5.218,5.218s-2.338,5.218-5.218,5.218h-3.868V10.216z
		 M45.565,17.952h1.155c1.364,0,2.478-1.113,2.478-2.477c0-1.351-1.114-2.463-2.478-2.463h-1.155V17.952z"/>
	<path fill="#414042" d="M56.961,20.651V10.216h4.606c1.67,0,3.088,1.433,3.088,3.103c0,0.71-0.264,1.364-0.667,1.879
		c0.71,0.571,1.183,1.447,1.183,2.393c0,1.656-1.405,3.062-3.061,3.062H56.961z M61.025,14.293c0.5,0,0.904-0.403,0.904-0.905
		c0-0.5-0.404-0.903-0.904-0.903h-1.323v1.809H61.025z M61.539,18.397c0.501,0,0.905-0.404,0.905-0.904
		c0-0.502-0.433-0.905-0.905-0.905h-1.837v1.81H61.539z"/>
	<path fill="#414042" d="M66.769,10.216h2.74v7.681h3.756v2.755h-6.496V10.216z"/>
	<path fill="#414042" d="M79.447,10.216c2.88,0,5.218,2.351,5.218,5.232c0,2.88-2.338,5.203-5.218,5.203
		c-2.879,0-5.203-2.323-5.203-5.203C74.244,12.566,76.568,10.216,79.447,10.216z M79.447,12.943c-1.363,0-2.477,1.113-2.477,2.49
		c0,1.363,1.113,2.49,2.477,2.49c1.378,0,2.491-1.127,2.491-2.49C81.938,14.057,80.825,12.943,79.447,12.943z"/>
	<path fill="#414042" d="M96.364,15.044v0.39c0,2.881-2.337,5.218-5.217,5.218c-2.881,0-5.204-2.337-5.204-5.218
		s2.323-5.218,5.204-5.218c1.433,0,2.726,0.584,3.674,1.517l-1.936,1.92c-0.445-0.417-1.029-0.695-1.738-0.695
		c-1.308,0-2.464,1.044-2.464,2.477c0,1.434,1.183,2.477,2.464,2.477c0.821,0,1.586-0.403,2.018-1.029h-2.018v-1.837H96.364z"/>
</g>
<g>
	<path fill="#BF1E56" d="M2.325,10.19L1.924,7.549C1.917,7.503,1.911,7.458,1.908,7.416C1.89,7.176,1.959,7.032,2.118,6.987
		c0.029-0.008,0.059-0.014,0.088-0.017c0.13-0.006,0.225,0.092,0.283,0.291c0.008,0.028,0.02,0.079,0.036,0.152
		c0.011,0.048,0.02,0.085,0.027,0.111c0.003-0.011,0.006-0.023,0.011-0.036c0.095-0.403,0.323-0.656,0.684-0.76
		c0.129-0.038,0.26-0.033,0.39,0.012c0.195,0.073,0.321,0.205,0.377,0.401c0.009,0.031,0.03,0.105,0.061,0.226
		C4.15,7.638,4.21,7.852,4.256,8.012C4.413,8.553,4.52,8.864,4.58,8.951C4.593,8.97,4.608,8.99,4.623,9.012
		c0.132,0.181,0.266,0.251,0.399,0.213c0.025-0.009,0.05-0.019,0.077-0.032c0.075-0.039,0.169-0.134,0.285-0.288
		C5.498,8.756,5.6,8.67,5.686,8.646c0.035-0.012,0.07-0.012,0.108-0.002c0.095,0.024,0.158,0.09,0.189,0.198
		c0.022,0.135-0.047,0.309-0.208,0.523C5.579,9.601,5.359,9.752,5.114,9.823C4.917,9.88,4.734,9.874,4.566,9.805
		C4.218,9.66,3.933,9.204,3.711,8.438C3.695,8.382,3.67,8.291,3.637,8.167C3.605,8.036,3.577,7.929,3.551,7.841
		C3.47,7.56,3.397,7.424,3.331,7.434c-0.011,0.003-0.024,0.01-0.038,0.02c-0.134,0.1-0.24,0.455-0.317,1.067
		C2.91,9.06,2.894,9.496,2.927,9.83l0.025,0.115c0.02,0.096,0.018,0.188-0.004,0.279c-0.041,0.147-0.117,0.237-0.231,0.271
		c-0.031,0.009-0.064,0.012-0.1,0.008C2.476,10.482,2.378,10.377,2.325,10.19z"/>
	<path fill="#BF1E56" d="M5.744,6.043c0.092-0.026,0.183-0.042,0.269-0.049c0.43-0.03,0.771,0.215,1.021,0.732
		c0.041-0.043,0.109-0.122,0.202-0.234c0.127-0.153,0.232-0.243,0.313-0.266c0.04-0.012,0.081-0.011,0.125,0.002
		c0.097,0.028,0.158,0.088,0.184,0.18c0.023,0.089-0.005,0.204-0.087,0.345C7.651,6.947,7.479,7.133,7.254,7.31
		c0.117,0.412,0.155,0.778,0.117,1.098C7.307,8.929,7.05,9.254,6.599,9.384C6.438,9.431,6.263,9.426,6.072,9.37
		C5.629,9.231,5.316,8.845,5.131,8.206c-0.11-0.384-0.147-0.753-0.11-1.107C5.08,6.541,5.321,6.189,5.744,6.043z M6.731,7.572
		C6.627,7.601,6.527,7.617,6.429,7.624c-0.37,0.029-0.646-0.091-0.833-0.357c-0.003,0.24,0.031,0.491,0.106,0.752
		c0.037,0.126,0.084,0.244,0.142,0.355c0.177,0.339,0.39,0.474,0.638,0.4c0.082-0.022,0.149-0.069,0.201-0.138
		C6.833,8.434,6.848,8.079,6.731,7.572z M6.507,7.055l0.055-0.018c-0.144-0.35-0.291-0.503-0.442-0.462
		C6.106,6.579,6.095,6.584,6.083,6.59C6.03,6.629,6.013,6.681,6.033,6.746C6.049,6.805,6.076,6.858,6.11,6.908
		C6.214,7.053,6.348,7.101,6.507,7.055z"/>
	<path fill="#BF1E56" d="M6.856,4.571C6.858,4.57,6.872,4.566,6.895,4.56c0.15-0.036,0.283-0.072,0.402-0.106L7.121,3.183
		C7.108,3.099,7.102,3.025,7.103,2.966c0-0.188,0.074-0.305,0.226-0.347c0.03-0.01,0.061-0.016,0.093-0.02
		c0.135-0.008,0.23,0.088,0.289,0.288C7.729,2.952,7.795,3.414,7.91,4.275l0.415-0.121c0.072-0.021,0.139-0.023,0.199-0.009
		c0.108,0.029,0.178,0.099,0.209,0.206C8.747,4.4,8.748,4.447,8.737,4.497C8.705,4.615,8.621,4.694,8.484,4.734L7.992,4.877
		c0.252,1.641,0.407,2.558,0.463,2.749C8.49,7.748,8.548,7.854,8.629,7.945c0.119,0.136,0.24,0.187,0.361,0.151
		c0.029-0.008,0.059-0.02,0.087-0.037c0.066-0.04,0.15-0.129,0.253-0.271C9.428,7.649,9.521,7.567,9.609,7.54
		c0.038-0.011,0.075-0.013,0.113-0.006C9.831,7.555,9.9,7.612,9.928,7.71c0.032,0.14-0.029,0.311-0.181,0.516
		C9.559,8.465,9.331,8.623,9.066,8.7C8.804,8.772,8.559,8.727,8.331,8.559C8.096,8.377,7.928,8.112,7.827,7.765
		C7.805,7.688,7.656,6.784,7.38,5.054L7.025,5.156C7.009,5.161,6.993,5.165,6.978,5.17C6.792,5.208,6.673,5.139,6.622,4.963
		c-0.014-0.048-0.019-0.096-0.015-0.14C6.623,4.698,6.706,4.614,6.856,4.571z"/>
	<path fill="#BF1E56" d="M11.157,6.362c-0.026-0.089-0.048-0.186-0.067-0.288c-0.075-0.47-0.048-0.911,0.079-1.329
		c0.155-0.509,0.43-0.819,0.823-0.933c0.168-0.049,0.325-0.059,0.471-0.028c0.035-0.079,0.097-0.133,0.189-0.162
		c0.053-0.017,0.087-0.021,0.103-0.018c0.124,0.005,0.213,0.101,0.267,0.287c0.022,0.076,0.057,0.244,0.104,0.505
		c0.135,0.773,0.229,1.25,0.282,1.433c0.035,0.12,0.092,0.227,0.172,0.317c0.12,0.136,0.24,0.188,0.361,0.153
		c0.024-0.007,0.048-0.018,0.073-0.03c0.075-0.039,0.17-0.131,0.288-0.279c0.115-0.148,0.214-0.235,0.302-0.259
		c0.034-0.011,0.073-0.009,0.116,0.004c0.092,0.031,0.151,0.09,0.176,0.177c0.032,0.139-0.031,0.312-0.189,0.517
		c-0.191,0.238-0.421,0.396-0.689,0.475c-0.333,0.094-0.627-0.004-0.881-0.29c-0.023,0.056-0.052,0.113-0.087,0.171
		c-0.189,0.32-0.419,0.521-0.688,0.599c-0.169,0.048-0.328,0.046-0.478-0.005C11.561,7.26,11.319,6.922,11.157,6.362z M12.521,4.559
		L12.47,4.283c-0.065-0.014-0.131-0.01-0.194,0.009c-0.047,0.014-0.095,0.034-0.141,0.062c-0.226,0.14-0.367,0.426-0.423,0.859
		c-0.051,0.39-0.025,0.758,0.075,1.105c0.003,0.013,0.008,0.026,0.011,0.039c0.102,0.319,0.229,0.457,0.385,0.411
		c0.081-0.025,0.169-0.1,0.262-0.221c0.096-0.122,0.161-0.229,0.194-0.321c0.019-0.061,0.023-0.221,0.012-0.479
		C12.624,5.265,12.581,4.869,12.521,4.559z"/>
</g>
<path fill="#BF1E56" d="M8.172,10.912c0.412,0.733,0.822,1.465,1.138,2.246c0.093,0.229,0.613,0.144,0.614-0.108
	c0.005-1.146,0.173-2.302,0.882-3.239c0.232-0.308-0.348-0.378-0.508-0.165c-0.764,1.012-0.985,2.21-0.992,3.457
	c0.205-0.037,0.409-0.072,0.614-0.108c-0.329-0.814-0.758-1.58-1.188-2.344C8.604,10.422,8.019,10.642,8.172,10.912L8.172,10.912z"
	/>
</svg>
